<svg id="visual" viewBox="0 0 900 600" width="900" height="600" xmlns="http://www.w3.org/2000/svg" xmlns:xlink="http://www.w3.org/1999/xlink" version="1.1"><rect x="0" y="0" width="900" height="600" fill="#dadada"></rect><defs><linearGradient id="grad1_0" x1="33.3%" y1="0%" x2="100%" y2="100%"><stop offset="20%" stop-color="#dadada" stop-opacity="1"></stop><stop offset="80%" stop-color="#dadada" stop-opacity="1"></stop></linearGradient></defs><defs><linearGradient id="grad2_0" x1="0%" y1="0%" x2="66.7%" y2="100%"><stop offset="20%" stop-color="#dadada" stop-opacity="1"></stop><stop offset="80%" stop-color="#dadada" stop-opacity="1"></stop></linearGradient></defs><g transform="translate(900, 0)"><path d="M0 324.5C-49.2 303.5 -98.4 282.5 -149 258.1C-199.6 233.7 -251.5 205.8 -281 162.2C-310.5 118.7 -317.5 59.3 -324.5 0L0 0Z" fill="#e21"></path></g><g transform="translate(0, 600)"><path d="M0 -324.5C61.3 -318.6 122.6 -312.8 162.2 -281C201.9 -249.3 219.9 -191.7 243.4 -140.5C266.8 -89.3 295.6 -44.7 324.5 0L0 0Z" fill="#e21"></path></g></svg>