<svg id="visual" viewBox="0 0 900 600" width="900" height="600" xmlns="http://www.w3.org/2000/svg" xmlns:xlink="http://www.w3.org/1999/xlink" version="1.1"><rect x="0" y="0" width="900" height="600" fill="#ffffff"></rect><defs><linearGradient id="grad1_0" x1="33.3%" y1="0%" x2="100%" y2="100%"><stop offset="20%" stop-color="#ffffff" stop-opacity="1"></stop><stop offset="80%" stop-color="#ffffff" stop-opacity="1"></stop></linearGradient></defs><defs><linearGradient id="grad2_0" x1="0%" y1="0%" x2="66.7%" y2="100%"><stop offset="20%" stop-color="#ffffff" stop-opacity="1"></stop><stop offset="80%" stop-color="#ffffff" stop-opacity="1"></stop></linearGradient></defs><g transform="translate(900, 0)"><path d="M0 378.6C-41.3 346.1 -82.6 313.7 -120.5 291C-158.5 268.4 -193.2 255.5 -234.8 234.8C-276.3 214 -324.7 185.3 -349.8 144.9C-374.9 104.4 -376.7 52.2 -378.6 0L0 0Z" fill="#e21"></path></g><g transform="translate(0, 600)"><path d="M0 -378.6C54.4 -368.5 108.8 -358.5 132.8 -320.6C156.8 -282.7 150.3 -217 188.8 -188.8C227.3 -160.6 310.6 -170.1 349.8 -144.9C388.9 -119.7 383.7 -59.8 378.6 0L0 0Z" fill="#e21"></path></g></svg>