<svg id="visual" viewBox="0 0 900 600" width="900" height="600" xmlns="http://www.w3.org/2000/svg" xmlns:xlink="http://www.w3.org/1999/xlink" version="1.1"><rect x="0" y="0" width="900" height="600" fill="#ffffff"></rect><defs><linearGradient id="grad1_0" x1="33.3%" y1="0%" x2="100%" y2="100%"><stop offset="20%" stop-color="#ffffff" stop-opacity="1"></stop><stop offset="80%" stop-color="#ffffff" stop-opacity="1"></stop></linearGradient></defs><defs><linearGradient id="grad2_0" x1="0%" y1="0%" x2="66.7%" y2="100%"><stop offset="20%" stop-color="#ffffff" stop-opacity="1"></stop><stop offset="80%" stop-color="#ffffff" stop-opacity="1"></stop></linearGradient></defs><g transform="translate(900, 0)"><path d="M0 459.7C-31 420.8 -62 381.9 -100.4 374.8C-138.8 367.7 -184.7 392.3 -225.5 390.6C-266.3 388.8 -302.2 360.6 -325.1 325.1C-348 289.5 -358 246.7 -359.4 207.5C-360.8 168.3 -353.7 132.8 -369 98.9C-384.3 64.9 -422 32.4 -459.7 0L0 0Z" fill="#e21"></path></g><g transform="translate(0, 600)"><path d="M0 -459.7C44.4 -465.3 88.8 -471 119 -444C149.2 -417.1 165.2 -357.6 187 -323.9C208.8 -290.2 236.2 -282.2 266.6 -266.6C297 -250.9 330.3 -227.6 342.1 -197.5C353.9 -167.4 344.3 -130.6 360.3 -96.5C376.3 -62.5 418 -31.2 459.7 0L0 0Z" fill="#e21"></path></g></svg>