<?xml version="1.0" encoding="UTF-8"?>
<svg version="1.1" viewBox="0 0 2048 1469" width="747" height="536" xmlns="http://www.w3.org/2000/svg">
<path transform="translate(999,348)" d="m0 0h48l26 4 17 4 19 6 18 8 16 8 15 9 14 10 10 8 10 9 19 19 11 14 9 13 12 20 10 21 6 17 6 20 2 9 1 12 2 10v51l-1 11-1 2-1 11-7 27-7 19-3 12-12 5-13 4h-7v2l-12 1-3 2h-50l-31-4-36-7-58-13-27-5-34-5-17-2-20-1h-61l-36 4-19 3-13 2-7 1-4-8-6-18-4-17-2-9-2-13v-59l1-2 1-12 2-4 1-9 2-7 5-16 8-20 11-22 10-16 12-16 7-9 20-20 1-4 1-5 9-2 8-5 14-10 21-12 19-9 19-7 29-7zm19 12-30 3-25 5-27 9-20 9-16 9-10 7 1 3 21 12 11 8 4-1 13-8 19-7 22-6 10-2 18-2h27l19 2 22 5 25 9 16 8 12 7 17 12 7 7 8 7 8 8 7 8 12 17 9 16 7 16 6 18 3 10 2 10 1 8 2 12v33l-3 21-7 26-1 7 4 1 16 1 2 1v7h-13l-24 1v29h30l9-4 4-8 11-30 6-25 2-12 1-13 1-4v-33l-2-18-6-27-8-23-9-20-10-18-12-17-8-10-11-12-13-13-14-11-14-10-15-9-25-12-27-9-12-3-13-2-29-3zm0 45-23 2-24 5-20 7-21 11 5 9 5 6 5-1 10-5 3-1h25l12 5 8 6 7 7 8 15 4 3 20 1 17 5 14 7 9 7 3 3v3h-27l-12-4h-12l-1 1h-10l-5 3-1 4 1 4 2 1 107 1 29 29 7 8 12 9 21 12 4 4-1 10h-12l-16 1-1 4v71h-8l-3-3-1-72-23-1h-42l-24-1-16-5-11-3-1 2v39l1 52 1 1h155l3-4 7-25 2-8 2-25v-15l-2-26-3-16-5-17-9-21-8-14-8-12-10-13-23-23-18-13-16-9-15-7-21-7-25-5-19-2zm-148 12-26 26-12 16-12 18-8 15-11 27-6 20-5 26v60l4 22 5 17 6 16 5 2 28-7 2-1-1-9-8-27-4-25-1-6v-30l2-7 3-19 4-15v-4l-7 1-8 2 6-12 9-10 16-14 5-6 7-13 9-11 7-8 17-17 8-7-5-5-15-10-9-5zm37 28-8 6-20 20-12 16-1 3 15-1 1-3h39l1-11 5-11-2-4-9-9-8-6zm2 60-7 1-2 2h-6l-3 2-9 2-14 1-20 10-3 3-3 10-1 8-1 1-5 33v43l7 30 6 18 1 2h9l32-5 15-2 2-4 1-8 1-1v-27l1-23 2-3v-10l2-4 1-9 6-20 9-22 4-8v-6l-8-11-2-2zm103 14-4 2 2 5 12 13 9 10 7 8 12 6 19 7 47 1h21l39-1-1-3-15-10-10-9-17-17-8-7-5-4-3-1zm-20 12-8 4-12 11-16 16-4 6-1 73v21l3 3 3 1h10l1-1 1-73 4-5 15-11 6 1 14 11 4 6 1 72 13 1 3-1 1-40v-58l-9-11-9-9-7-6-7-8-4-3zm-46 2-5 10-3 10 1 2 7-2 10-8 6-8-3-2-7-2zm-11 41-1 14v25l2 11 1 13h2l1-5v-58zm111 102-2 2 3 3 28 8 37 9 14 3 12 1 1-2v-21l-2-3zm118 0-14 1-1 2v24l6 3h28v-29l-5-1z" fill="#529A92"/>
<path transform="translate(950,504)" d="m0 0h5l1 5-6 13-4 12-6 14-1 7 10-5 9-8 3-5 8-7 16-16 8-6 25-1 2 1 107 1 30 30 7 8 14 10 18 10 5 5-1 8-1 2-9 1h-19l-1 75-2 1h-6l-4-4v-72h-65l-24-1-16-5-11-3v40l1 52h155l4-1 10 1 16 1 3 2-1 7-13 1h-24v29l30-1 8-3 18-1v2l-24 8h-7v2l-12 1-3 2h-50l-31-4-36-7-58-13-27-5-34-5-17-2-20-1h-61l-36 4-19 3h-8l2-4 18-5 12-3 6-3 14-1 32-5 15-2 2-11 1-1v-27l1-23 2-3v-10l2-4 1-9 6-20 9-22 7-14zm62 15-4 2 2 5 12 13 9 10 7 8 12 6 19 7 47 1h21l39-1-1-3-15-10-10-9-17-17-8-7-5-4-3-1zm-20 12-8 4-12 11-16 16-4 6-1 73v21l3 3 3 1h10l1-1 1-73 4-5 15-11 6 1 14 11 4 6 1 72 13 1 3-1 1-40v-58l-9-11-9-9-7-6-7-8-4-3zm-57 43-1 14v25l2 11 1 13h2l1-5v-58zm111 102-2 2 3 3 28 8 37 9 14 3 12 1 1-2v-21l-2-3zm118 0-14 1-1 2v24l6 3h28v-29l-5-1z" fill="#529A92"/>
<path transform="translate(1303,764)" d="m0 0h14l6 2 6 8 15 26 16 27 7 10h2l1-7v-59l2-5 6-2h12l7 1 1 1v130l-3 2-18 1-5-4-13-21-13-22-16-26-3-2-1 70-3 4h-23l-2-2-1-126 3-5z" fill="#EA9B4F"/>
<path transform="translate(1076,764)" d="m0 0h36l17 1 12 5 6 4 7 8 5 11 2 9v13l-3 12-7 12-7 7 3 9 19 39-3 4h-24l-6-9-12-28-4-7-2-1h-14l-2 2-1 37-3 6h-22l-3-4v-127zm24 30-2 2v27l4 3 3 1h9l10-3 6-5 2-10-2-9-4-4-9-2z" fill="#EA9B4F"/>
<path transform="translate(999,348)" d="m0 0h48l26 4 17 4 19 6 18 8 16 8 15 9 14 10 10 8 10 9 19 19 11 14 9 13 12 20 10 21 6 17 6 20 2 9 1 12 2 10v51l-1 11-1 2-1 11-7 27-7 19-3 12h-18l2-6 12-32 6-25 2-12 1-13 1-4v-33l-2-18-6-27-8-23-9-20-10-18-12-17-8-10-11-12-12-12-14-11-14-10-15-9-25-12-27-9-12-3-13-2-29-3h-11l-30 3-25 5-27 9-20 9-16 9-9 6-1 2-19-4 5-5 18-12 18-10 17-8 19-7 29-7z" fill="#EA9C51"/>
<path transform="translate(466,765)" d="m0 0h55l16 8 8 9 5 11 3 12v8l-3 13-6 10-8 9 1 6 12 25 7 15v5l-3 2-17 1-6-3-6-10-8-17-5-12-5-4-8-1-7 1-1 2-1 40-5 3h-17l-4-4-1-5v-113l1-9zm25 29-2 1v29l5 3h15l10-4 4-5 2-6-1-8-4-6-4-3-4-1z" fill="#EA9B50"/>
<path transform="translate(957,765)" d="m0 0h23l3 8v73l2 13 7 8 4 2h14l8-5 4-7 2-10 1-80 3-2h23l1 1v98l-5 14-7 9-8 7-8 4-10 3h-24l-13-5-12-11-6-10-4-14v-94z" fill="#EA9B4F"/>
<path transform="translate(1216,763)" d="m0 0h24l5 3 4 8 13 41 6 20 8 25 10 31v6l-1 1h-25l-3-5-4-14-2-4-2-1h-43l-3 11-4 10-3 3h-23l-2-3 2-9 12-37 9-30 11-35 4-15 5-5zm12 33-3 3-12 44v6h31l-1-8-7-27-5-15z" fill="#EA9B50"/>
<path transform="translate(880,764)" d="m0 0h20l6 2 3 5 16 51 13 42 6 19 2 7v7l-1 1-19 1-5-2-4-6-4-14v-3h-47l-4 18-5 6h-24l-1-5 10-33 17-53 12-39 3-3zm8 32-3 6-8 31-3 12v4h30v-9l-8-30-4-12z" fill="#EA9B50"/>
<path transform="translate(1512,764)" d="m0 0h60l7 2 1 3v18l-2 5-3 2-38 1v21h27l9 1 1 1v17l-1 8-1 1-35 1v22l4 1h35l5 3v25l-2 2-34 1h-28l-7-2-2-4v-126z" fill="#EA9B50"/>
<path transform="translate(696,762)" d="m0 0 17 1 13 7 9 10 4 9-1 5-5 3-11 3-5-1-8-7-7-3h-7l-8 4-3 6 1 9 5 5 10 4 23 8 11 7 6 8 4 11v15l-3 10-6 10-8 7-12 6-8 2h-20l-14-5-10-7-7-8-4-8 2-6 10-5 10-3 9 10 9 4h13l6-3 4-5 1-6-3-7-8-4-23-7-11-6-8-8-6-12-1-15 2-12 5-10 8-8 10-5 5-2z" fill="#EA9B50"/>
<path transform="translate(571,765)" d="m0 0h68l3 6v15l-3 7-39 1-3 7 1 12 1 3 34 1 2 2v21l-3 4-34 1-1 2v15l2 6 40 1 3 2v25l-3 2-43 1h-18l-6-1-2-5-1-115z" fill="#EA9B4F"/>
<path transform="translate(958,437)" d="m0 0h25l12 5 8 6 8 8 8 15 3 2 20 1 17 5 14 7 9 7 4 4-1 4h-27l-12-4h-12l-1 1h-10l-4 2-1 7-2 1-23 1-11 9-19 19-17-4 4-14 5-10v-4h-5l-8 8-7 9-2-3-8-11 2-2 19-3 1-2-4-4-14-7-12-3 4-1v-11l5-11 4 4 6 10 12 14 2 2h3l-1-17-2-10-8-22 10-6z" fill="#EA9B50"/>
<path transform="translate(1450,763)" d="m0 0h36l8 3v27l-16 2h-11v99l-4 4h-22l-2-3-1-97-1-3h-19l-5-3-3-4v-18l3-5 3-1z" fill="#EA9B50"/>
<path transform="translate(802,764)" d="m0 0h26l5 2 2 4v18l-4 5-2 1-21 1-1 1-1 97-3 5h-22l-3-5-1-98-3-1h-14l-7-2-2-3v-21l3-3z" fill="#EA9C50"/>
<path transform="translate(858,408)" d="m0 0 8 4 4 3 3 2-5 3-23 23-12 16-12 18-8 15-11 27-6 20-5 26v60l4 22 5 17 6 16 2 1-2 5-10 3-3-1-7-18-5-18-3-15-2-13v-59l1-2 1-12 2-4 1-9 2-7 5-16 8-20 11-22 10-16 12-16 7-9 20-20z" fill="#EA9C51"/>
<path transform="translate(1009,398)" d="m0 0h27l19 2 22 5 25 9 16 8 12 7 17 12 7 7 8 7 9 9 7 8 12 17 9 16 7 16 6 18 3 10 2 10 1 8 2 12v33l-3 21-7 26-2 6-6 1-2-1 3-12 6-23 2-25v-15l-2-26-3-16-5-17-9-21-8-14-8-12-10-13-22-22-18-13-16-9-15-7-21-7-25-5-19-2h-12l-23 2-24 5-20 7-19 10-4-1-2-5 10-7 20-8 25-7 10-2z" fill="#EA9D53"/>
<path transform="translate(1199,982)" d="m0 0h15l8 3 4 6 1 3v77l-3 9-4 3-4 1-17 1h-17l-9-1-1-5 2-2h26l8-2 2-3v-8l-2-5-8-2h-18l-8-5-3-9v-41l2-11 4-6 4-2zm-4 8-5 5-2 4v42l3 6 3 2h11l4-4 1-3v-45l-4-6-2-1z" fill="#529A92"/>
<path transform="translate(869,400)" d="m0 0h7l15 4 21 12 11 8 5 3 11 16 5 5 8 22 2 17v7l-4 1-7-7-11-14-5-8-2-5-9-9-8-6-7 4-15 15-10 11-8 11-3 5-8 4-3-1 8-15 9-11 7-8 18-18 7-6-5-5-16-10-15-8-10-6 1-5 9-2z" fill="#529A92"/>
<path transform="translate(702,955)" d="m0 0h53l6 2 6 5 1 2v13l-6 6-6-1-3-4-4-10-6-3-13-2-11 1-8 3-3 3-1 7v61l2 5 7 5h27l6-3 4-12 3-2 9 1 3 3v13l-4 5-5 3-15 1h-41l-7-3-4-5-1-6-1-48-1-4 1-5v-12l3-13 6-5z" fill="#529A92"/>
<path transform="translate(1304,970)" d="m0 0h40l8 4 4 7v64l-4 8-6 3-10 1h-22l-8-2-5-6-1-3-1-11v-20l2-8 5-6 6-2 21-2 4-1 1-2v-12l-1-2-3-1-29-1-2-1v-6zm21 35-6 4-3 6v23l2 7 4 4h12l4-3 1-3v-30l-3-5-5-3z" fill="#529A92"/>
<path transform="translate(1113,970)" d="m0 0h39l6 3 4 5 2 10-1 57-3 7-6 4-5 1h-29l-7-3-4-3-2-7v-34l5-8 11-4h9l11-2 2-1 1-9-2-5-3-2-28-1-2-1v-6zm18 35-5 4-2 4v28l4 6 2 2h10l6-5 1-4v-24l-3-7-5-4z" fill="#529A92"/>
<path transform="translate(910,970)" d="m0 0h39l8 4 4 6 1 6v58l-4 8-5 4-10 1h-25l-6-2-4-4-2-5-1-31 2-10 4-4 7-2 22-2 3-1 1-2v-10l-2-4-2-1-31-1v-7zm19 36-5 4-3 7v19l3 10 5 3h10l5-5 2-9v-12l-2-12-6-5z" fill="#529A92"/>
<path transform="translate(782,970)" d="m0 0h38l8 4 4 6v68l-7 8-8 1h-27l-7-2-5-5-2-4-1-11 1-25 5-8 3-2 22-2 7-2 3-3v-7l-3-5-3-2-28-1-3-1v-5zm20 35-6 4-3 4v30l4 5 2 1h11l5-4 2-6v-24l-4-7-5-3z" fill="#529A92"/>
<path transform="translate(1242,982)" d="m0 0 6 1 4 6 1 51 3 6 3 2h8l5-3 2-2 1-54 4-6 6-1 4 2 3 6v49l-2 10-4 5-4 2-10 1h-24l-10-5-3-8v-55l3-5z" fill="#529A92"/>
<path transform="translate(1026,953)" d="m0 0h29l13 3 8 6 8 11 1 2v58l-3 7-7 8-6 6-9 2h-39l-7-3-3-3 1-3 13 1h16l2-1 13-2 8-6 3-7 2-11v-34l-4-13-5-6-9-4-7-1h-31l-3-1 2-5 9-3z" fill="#529A92"/>
<path transform="translate(1018,471)" d="m0 0 4 2 20 1 17 5 14 7 9 7 4 4-1 4h-27l-12-4h-12l-1 1h-10l-6 2-1-2-11-1-9 1-3 3-9 1h-10l-12-1-1-4 9-8 13-8 16-6z" fill="#529A92"/>
<path transform="translate(859,982)" d="m0 0h22l13 1-1 6-1 1-30 1-4 6v13l1 4 3 1 18 1 9 2 7 7 1 7v10l-2 8-5 5-2 1-11 1h-31l-4-1 2-5 1-2 32-1 5-4v-16l-1-3-24-2-10-2-5-5-2-4v-15l4-8 6-5z" fill="#529A92"/>
<path transform="translate(1109,591)" d="m0 0h37v2l-4 3-1 7v9l-1 8v11l1 2 5 1-1 3-4 2h-26l-6-3 1-2h6l-1-37-4-1v16h-2l-1-9v-10z" fill="#529A92"/>
<path transform="translate(840,527)" d="m0 0 5 1-3 16-1 1-5 33v43l7 30 6 18v2l-9 2-10-35-4-25-1-6v-30l2-7 3-19 4-15v-5z" fill="#EA9E55"/>
<path transform="translate(1058,591)" d="m0 0h29l6 1 1 3-7-1v40h5l1 3h-37v-2l6-1v-38h-5v-4z" fill="#529A92"/>
<path transform="translate(1035,975)" d="m0 0h9l1 1v62l-1 1h-13l-1-20v-40l1-3z" fill="#529A92"/>
<path transform="translate(901,439)" d="m0 0 5 5 1 2-8 6-13 13-10 11-8 11-3 5-8 4-3-1 8-15 9-11 7-8 18-18z" fill="#EA9E55"/>
<path transform="translate(1092,936)" d="m0 0h9l4 5 1 3v13l-5 10-5 3h-3l1-5 2-4v-6l-8-6-2-5 3-6z" fill="#529A92"/>
<path transform="translate(961,506)" d="m0 0 7 1 9 4-1 5-7 5-7-6-3-5v-3z" fill="#529A92"/>
</svg>
