<?xml version="1.0" standalone="no"?><svg xmlns="http://www.w3.org/2000/svg" viewBox="0 0 1440 320"><path fill="#E21" fill-opacity="1" d="M0,192L20,202.7C40,213,80,235,120,256C160,277,200,299,240,261.3C280,224,320,128,360,106.7C400,85,440,139,480,160C520,181,560,171,600,192C640,213,680,267,720,250.7C760,235,800,149,840,133.3C880,117,920,171,960,170.7C1000,171,1040,117,1080,106.7C1120,96,1160,128,1200,154.7C1240,181,1280,203,1320,176C1360,149,1400,75,1420,37.3L1440,0L1440,320L1420,320C1400,320,1360,320,1320,320C1280,320,1240,320,1200,320C1160,320,1120,320,1080,320C1040,320,1000,320,960,320C920,320,880,320,840,320C800,320,760,320,720,320C680,320,640,320,600,320C560,320,520,320,480,320C440,320,400,320,360,320C320,320,280,320,240,320C200,320,160,320,120,320C80,320,40,320,20,320L0,320Z"></path></svg>